<svg width="25" height="24" viewBox="0 0 25 24" fill="none" xmlns="http://www.w3.org/2000/svg">
<path d="M21.2867 20.17L15.6967 14.58C16.7667 13.35 17.4167 11.75 17.4167 10C17.4167 6.13 14.2867 3 10.4167 3C6.54669 3 3.41669 6.13 3.41669 10C3.41669 13.87 6.54669 17 10.4167 17C12.1667 17 13.7667 16.35 14.9967 15.29L20.5867 20.88L21.2867 20.17ZM10.4167 16C7.10669 16 4.41669 13.31 4.41669 10C4.41669 6.69 7.10669 4 10.4167 4C13.7267 4 16.4167 6.69 16.4167 10C16.4167 13.31 13.7267 16 10.4167 16Z" fill="white"/>
</svg>
